<?xml version="1.0" encoding="UTF-8"?>
<svg version="1.1" xmlns="http://www.w3.org/2000/svg" width="792" height="254">
<path d="M0 0 C261.36 0 522.72 0 792 0 C792 83.82 792 167.64 792 254 C530.64 254 269.28 254 0 254 C0 170.18 0 86.36 0 0 Z " fill="#FDFDFD" transform="translate(0,0)"/>
<path d="M0 0 C10.91649109 6.5063869 18.53638528 16.64626417 22.109375 28.76171875 C25.0379343 41.13495423 23.72914266 54.33217657 17.64453125 65.484375 C16.21047723 67.77578571 14.6815599 69.88475312 13 72 C12.28263672 72.92232422 12.28263672 72.92232422 11.55078125 73.86328125 C6.11969765 80.03310167 -3.75537389 85.71226792 -12 87 C-24.54130699 87.71981011 -35.72211525 87.04356198 -46 79 C-47.65 77.35 -49.3 75.7 -51 74 C-51.33 94.46 -51.66 114.92 -52 136 C-57.28 136 -62.56 136 -68 136 C-68 90.46 -68 44.92 -68 -2 C-62.72 -2 -57.44 -2 -52 -2 C-51.67 1.63 -51.34 5.26 -51 9 C-50.01 7.9275 -49.02 6.855 -48 5.75 C-44.37256175 2.12256175 -40.75235969 -0.12570487 -36 -2 C-35.11828125 -2.35707031 -34.2365625 -2.71414062 -33.328125 -3.08203125 C-22.81471288 -5.98185736 -9.57827731 -5.26477229 0 0 Z " fill="#020202" transform="translate(458,118)"/>
<path d="M0 0 C6.27 0 12.54 0 19 0 C19.54414551 1.43609619 20.08829102 2.87219238 20.64892578 4.35180664 C22.69393289 9.74783819 24.74075372 15.14318032 26.78808594 20.53833008 C27.66910447 22.86073741 28.54964979 25.18332433 29.4296875 27.50610352 C34.18150257 40.04711546 38.93968126 52.57956668 44 65 C45.93314087 62.1002887 46.95310159 59.66287254 48.12304688 56.39868164 C48.53687622 55.25061539 48.95070557 54.10254913 49.3770752 52.91969299 C49.81982788 51.67904587 50.26258057 50.43839874 50.71875 49.16015625 C51.18150118 47.87349947 51.64468296 46.58699748 52.10827637 45.30064392 C53.32744096 41.91516653 54.54217213 38.5281176 55.7555542 35.14056396 C57.69674458 29.72187831 59.64246262 24.30482945 61.59230042 18.8892498 C62.27140278 17.0000503 62.94718856 15.10965966 63.6229248 13.21925354 C64.03675415 12.06803513 64.4505835 10.91681671 64.87695312 9.73071289 C65.23954224 8.71828018 65.60213135 7.70584747 65.97570801 6.66273499 C67 4 67 4 69 0 C74.61 0 80.22 0 86 0 C85.33244193 4.00534843 84.86744009 6.76937926 83.4597168 10.36987305 C83.1432016 11.18771271 82.8266864 12.00555237 82.50057983 12.84817505 C81.9801561 14.16662918 81.9801561 14.16662918 81.44921875 15.51171875 C81.08309479 16.45288544 80.71697083 17.39405212 80.3397522 18.36373901 C79.12812348 21.47395415 77.90809251 24.58079279 76.6875 27.6875 C75.83644037 29.86369753 74.98577947 32.04005103 74.13549805 34.21655273 C72.34676517 38.79295209 70.55452898 43.36796235 68.76074219 47.94238281 C66.46462071 53.80379682 64.1869 59.67214913 61.91648865 65.54356384 C60.14736315 70.11676419 58.37176358 74.68743554 56.59512329 79.25772095 C55.75035987 81.43431986 54.90799247 83.61185046 54.06820679 85.79037476 C50.22689874 95.74742545 46.37645006 105.65797581 41.6328125 115.2265625 C41.31584915 115.86803726 40.9988858 116.50951202 40.6723175 117.17042542 C37.32814624 123.68754254 33.58596098 127.1490541 26.875 129.875 C18.79084497 132.21442158 9.86967031 131.92824942 2 129 C1.97269592 127.43759968 1.95346774 125.8750573 1.9375 124.3125 C1.92589844 123.44238281 1.91429687 122.57226562 1.90234375 121.67578125 C1.99956517 119.01191443 2.40635667 116.59426811 3 114 C4.09699219 114.02320313 5.19398438 114.04640625 6.32421875 114.0703125 C7.778639 114.08907921 9.23306664 114.10727844 10.6875 114.125 C11.7693457 114.15013672 11.7693457 114.15013672 12.87304688 114.17578125 C18.73808126 114.23594879 18.73808126 114.23594879 24 112 C25.43913396 109.76199984 26.54267313 107.77189265 27.625 105.375 C27.92277344 104.74198975 28.22054687 104.10897949 28.52734375 103.45678711 C29.36968178 101.64617781 30.18561006 99.82335088 31 98 C31.37898437 97.18917969 31.75796875 96.37835938 32.1484375 95.54296875 C34.73126771 89.53611133 33.74393501 84.66839317 31.47216797 78.73754883 C30.82042439 77.14065101 30.15990816 75.5473147 29.4921875 73.95703125 C29.13427124 73.08688385 28.77635498 72.21673645 28.40759277 71.32022095 C27.23756973 68.48114639 26.05629113 65.6469022 24.875 62.8125 C24.06389243 60.84868732 23.25351534 58.88457279 22.44384766 56.92016602 C18.48572082 47.33115179 14.48449591 37.7603147 10.46875 28.1953125 C9.94306931 26.94118813 9.94306931 26.94118813 9.4067688 25.66172791 C7.75265186 21.71559036 6.09328755 17.77188997 4.42138672 13.83325195 C3.83023275 12.42927117 3.23923994 11.0252225 2.6484375 9.62109375 C2.13458496 8.4086499 1.62073242 7.19620605 1.09130859 5.94702148 C0 3 0 3 0 0 Z " fill="#040404" transform="translate(706,116)"/>
<path d="M0 0 C5.28 0 10.56 0 16 0 C16.01458252 1.72033447 16.02916504 3.44066895 16.04418945 5.21313477 C16.09597567 10.91695953 16.16129744 16.62052351 16.23571491 22.32409763 C16.28031496 25.77992452 16.31959312 29.23563634 16.34643555 32.69165039 C16.37758136 36.67098813 16.43236658 40.64983649 16.48828125 44.62890625 C16.49467117 45.86145645 16.5010611 47.09400665 16.50764465 48.36390686 C16.64149119 56.21229842 17.129381 61.58629091 22.3125 67.75 C27.24942259 71.88323752 31.24536656 73.55272348 37.63671875 73.2734375 C45.00623352 72.42076637 49.54599614 70.17659854 54.4921875 64.62109375 C58.99422301 56.79501648 59.45970262 48.48740827 59.51171875 39.6484375 C59.52966995 38.50839264 59.54762115 37.36834778 59.56611633 36.1937561 C59.61987372 32.5875406 59.65400426 28.9814548 59.6875 25.375 C59.72070354 22.91534667 59.75519597 20.45571038 59.79101562 17.99609375 C59.87558042 11.99748995 59.94255608 5.99892232 60 0 C65.61 0 71.22 0 77 0 C77 28.71 77 57.42 77 87 C71.39 87 65.78 87 60 87 C59.67 83.37 59.34 79.74 59 76 C58.360625 76.886875 57.72125 77.77375 57.0625 78.6875 C52.48935512 84.18306898 45.78134048 87.13099641 39 89 C36.34307424 89.23678302 33.84049091 89.38131214 31.1875 89.375 C30.48189941 89.37338867 29.77629883 89.37177734 29.04931641 89.37011719 C23.19213204 89.23274473 18.93546879 88.06083794 14 85 C12.9275 84.401875 11.855 83.80375 10.75 83.1875 C5.1419243 78.7265307 1.70692102 72.98109709 0 66 C-0.4092278 60.9249404 -0.35026731 55.8672725 -0.29296875 50.78125 C-0.28736451 49.31295203 -0.28309833 47.84464839 -0.28010559 46.37634277 C-0.26872184 42.53593099 -0.23931166 38.69586658 -0.20599365 34.85559082 C-0.17515211 30.92721249 -0.16157034 26.99877733 -0.14648438 23.0703125 C-0.11443459 15.38003261 -0.06172091 7.69010949 0 0 Z " fill="#040404" transform="translate(502,116)"/>
<path d="M0 0 C7.53819184 4.80763938 11.46859454 11.96729127 14.06175232 20.34942627 C14.64846162 23.22136802 14.64282738 25.91443677 14.63696289 28.84667969 C14.63684959 30.73818756 14.63684959 30.73818756 14.63673401 32.66790771 C14.63162778 34.03902221 14.6264118 35.41013631 14.62109375 36.78125 C14.61922778 38.18800811 14.61780472 39.59476688 14.61680603 41.00152588 C14.61299494 44.69718227 14.6031767 48.39279913 14.59210205 52.08843994 C14.58185764 55.86233994 14.57730192 59.63624635 14.57226562 63.41015625 C14.56155313 70.80991591 14.54396777 78.20963487 14.5234375 85.609375 C8.9134375 85.609375 3.3034375 85.609375 -2.4765625 85.609375 C-2.4859082 83.86398438 -2.49525391 82.11859375 -2.50488281 80.3203125 C-2.54052285 74.52865444 -2.59439214 68.73731694 -2.66046524 62.94593811 C-2.69983566 59.43741084 -2.73207457 55.9291306 -2.74755859 52.42041016 C-2.76571594 48.37882942 -2.81571203 44.33816976 -2.8671875 40.296875 C-2.86841614 39.0476123 -2.86964478 37.79834961 -2.87091064 36.51123047 C-3.00864507 28.26461041 -3.76088564 22.2297781 -9.9140625 16.234375 C-15.71516792 12.55562522 -20.67170213 11.80939886 -27.4765625 12.609375 C-34.20973467 14.41136178 -38.73075117 17.7753298 -42.4765625 23.609375 C-45.75438721 30.58036426 -45.94471775 37.49508187 -45.98828125 45.08203125 C-46.00623245 46.2456871 -46.02418365 47.40934296 -46.04267883 48.60826111 C-46.09651867 52.29609642 -46.13059369 55.98380424 -46.1640625 59.671875 C-46.19725872 62.18426243 -46.23175049 64.69663309 -46.26757812 67.20898438 C-46.35223033 73.34235556 -46.41916722 79.47569065 -46.4765625 85.609375 C-51.7565625 85.609375 -57.0365625 85.609375 -62.4765625 85.609375 C-62.4765625 56.899375 -62.4765625 28.189375 -62.4765625 -1.390625 C-57.1965625 -1.390625 -51.9165625 -1.390625 -46.4765625 -1.390625 C-46.1465625 2.569375 -45.8165625 6.529375 -45.4765625 10.609375 C-44.5690625 9.413125 -43.6615625 8.216875 -42.7265625 6.984375 C-31.71054602 -5.34829683 -14.53249303 -7.08707879 0 0 Z " fill="#030303" transform="translate(350.4765625,117.390625)"/>
<path d="M0 0 C5.61 0 11.22 0 17 0 C17 8.25 17 16.5 17 25 C24.59 25 32.18 25 40 25 C40 29.62 40 34.24 40 39 C32.41 39 24.82 39 17 39 C17.07409676 45.99320083 17.15702001 52.98514588 17.26245117 59.9777832 C17.29564115 62.35499499 17.32369141 64.73228446 17.34643555 67.10961914 C17.38008986 70.53305058 17.43241301 73.95577396 17.48828125 77.37890625 C17.49467117 78.43646622 17.5010611 79.49402618 17.50764465 80.58363342 C17.62401126 86.46546056 18.12696555 90.82067513 21 96 C23.70172921 98.00291127 25.99569541 98.27356522 29.3125 98.25 C30.38951172 98.25773437 30.38951172 98.25773437 31.48828125 98.265625 C34.80186545 97.98803947 34.80186545 97.98803947 41 96 C41 100.95 41 105.9 41 111 C32.80941009 115.09529496 22.6588301 115.72317759 13.8828125 113.05078125 C6.93854289 109.78470786 3.28922813 105.77196849 0.63290405 98.50512695 C-0.67112395 93.34359311 -0.36091095 88.03972584 -0.29296875 82.75 C-0.28872391 81.49614502 -0.28447906 80.24229004 -0.28010559 78.95043945 C-0.26622169 75.64264213 -0.23934353 72.33529618 -0.20599365 69.02764893 C-0.17511574 65.64218627 -0.1615627 62.25665712 -0.14648438 58.87109375 C-0.11350252 52.24719872 -0.06176448 45.62368665 0 39 C-6.27 39 -12.54 39 -19 39 C-19 34.38 -19 29.76 -19 25 C-12.73 25 -6.46 25 0 25 C0 16.75 0 8.5 0 0 Z " fill="#050505" transform="translate(610,91)"/>
<path d="M0 0 C1.18299683 0.01643555 1.18299683 0.01643555 2.38989258 0.03320312 C11.146602 0.35769261 17.03409749 3.03543618 23.0625 9.4375 C28.04693413 15.29145458 29.67005288 21.38271408 29.5625 28.875 C29.55420166 29.62193115 29.54590332 30.3688623 29.53735352 31.13842773 C29.25708705 40.33934649 26.39628668 47.14512975 20.05078125 53.87109375 C15.41900095 57.93916854 10.265047 60.05082942 4.125 60.5625 C2.2996875 60.7171875 2.2996875 60.7171875 0.4375 60.875 C-7.21736043 60.74301965 -14.83116705 57.58658698 -20.375 52.3359375 C-27.91002653 43.42733842 -28.74181047 33.89295115 -27.875 22.5625 C-26.1364386 14.9065459 -21.86471299 7.76445868 -15.16943359 3.46801758 C-10.08609439 0.64345129 -5.77035021 -0.1137624 0 0 Z " fill="#FCFCFC" transform="translate(433.875,129.4375)"/>
<path d="M0 0 C3.57943222 26.1618664 -1.93677652 50.92839703 -18 72.25 C-21.59813084 76.79906542 -21.59813084 76.79906542 -24 78 C-50.19154888 60.02663771 -50.19154888 60.02663771 -59 49 C-47.05504717 31.37326651 -23.41785978 0 0 0 Z " fill="#020202" transform="translate(210,141)"/>
<path d="M0 0 C2.64312551 2.64312551 3.35806592 5.23814764 4.625 8.75 C5.07101563 9.96171875 5.51703125 11.1734375 5.9765625 12.421875 C6.95181526 15.83153733 7.20505618 18.48166759 7 22 C6.22398437 22.3403125 5.44796875 22.680625 4.6484375 23.03125 C-19.88364895 34.03848688 -39.05208535 49.57812802 -54 72 C-60.13973124 69.95342292 -63.47943083 60.86584484 -66.45703125 55.25390625 C-70.18551919 47.4773457 -72.56719902 39.25081865 -75 31 C-72.38050362 28.38050362 -70.03675098 27.90007354 -66.5 26.78515625 C-65.1362916 26.34790107 -63.77277427 25.91004967 -62.40942383 25.47167969 C-61.69025787 25.24234741 -60.97109192 25.01301514 -60.23013306 24.7767334 C-39.47754621 18.13040771 -19.26321659 10.26204084 0 0 Z " fill="#040404" transform="translate(201,112)"/>
<path d="M0 0 C5.61 0 11.22 0 17 0 C17 45.87 17 91.74 17 139 C11.39 139 5.78 139 0 139 C0 93.13 0 47.26 0 0 Z " fill="#070707" transform="translate(673,64)"/>
<path d="M0 0 C5.61 0 11.22 0 17 0 C17 42.9 17 85.8 17 130 C11.39 130 5.78 130 0 130 C0 87.1 0 44.2 0 0 Z " fill="#000000" transform="translate(241,73)"/>
<path d="M0 0 C1.5400609 3.03517995 2.86214067 6.08843609 4.125 9.25 C10.74288126 25.22915739 10.74288126 25.22915739 20.84765625 39.10546875 C22 41 22 41 21.859375 43.37109375 C20.87938185 46.3689819 19.60397944 49.05638521 18.1875 51.875 C14.75357636 59.09865142 12.88926781 66.22493633 11 74 C3.74 74.33 -3.52 74.66 -11 75 C-12.134375 72.7725 -13.26875 70.545 -14.4375 68.25 C-17.7815306 61.83165268 -21.57602746 56.23469755 -26.1171875 50.5859375 C-28.04694957 47.93551739 -29.26761195 46.196689 -30 43 C-28.68838868 40.75047779 -27.4796605 39.10739076 -25.7890625 37.17578125 C-24.8436696 36.02517673 -23.90275414 34.87088203 -22.96582031 33.71337891 C-22.47408325 33.10898987 -21.98234619 32.50460083 -21.47570801 31.88189697 C-19.02733994 28.75961503 -16.83759014 25.47492507 -14.6484375 22.16796875 C-14.21323792 21.51297394 -13.77803833 20.85797913 -13.32965088 20.18313599 C-12.00757826 18.18710818 -10.69115867 16.18743097 -9.375 14.1875 C-8.45747243 12.8011402 -7.53950558 11.41507104 -6.62109375 10.02929688 C-4.40901126 6.68950855 -2.20281559 3.34590695 0 0 Z " fill="#030303" transform="translate(120,149)"/>
<path d="M0 0 C4.86644775 0.63657492 9.35954516 1.67306086 14.08203125 3.046875 C15.48340179 3.25946732 16.88884477 3.44663054 18.296875 3.609375 C20.17052734 3.8259375 20.17052734 3.8259375 22.08203125 4.046875 C22.07679443 4.79259766 22.07155762 5.53832031 22.06616211 6.30664062 C22.04523886 9.72004334 22.03232252 13.13343251 22.01953125 16.546875 C22.00696289 18.30644531 22.00696289 18.30644531 21.99414062 20.1015625 C21.97705281 26.18482382 22.13700373 32.03441644 23.08203125 38.046875 C10.92965166 41.26857106 -1.21183775 44.27622575 -13.60546875 46.421875 C-14.56590088 46.58913086 -15.52633301 46.75638672 -16.51586914 46.92871094 C-20.71479691 47.62809355 -24.65094828 48.12709102 -28.91796875 48.046875 C-30.97059021 25.72066929 -30.97059021 25.72066929 -27.83544922 20.109375 C-24.99282307 17.23379955 -21.39363596 15.66995089 -17.75341797 14.0234375 C-14.45428972 12.26811521 -11.90128625 9.68893544 -9.23046875 7.109375 C-8.4739502 6.39793335 -8.4739502 6.39793335 -7.70214844 5.67211914 C-1.73289243 0.04235175 -1.73289243 0.04235175 0 0 Z " fill="#020202" transform="translate(94.91796875,98.953125)"/>
<path d="M0 0 C10.72025773 2.90718854 20.18325699 8.15085769 27 17 C6.36923417 43.86217322 6.36923417 43.86217322 -2 52 C-10.9123334 49.56936362 -16.6475466 39.90953076 -22 33 C-20.71683917 30.27691377 -19.30930108 27.93945135 -17.4609375 25.56640625 C-16.7189209 24.60154297 -16.7189209 24.60154297 -15.96191406 23.6171875 C-15.43823242 22.93914062 -14.91455078 22.26109375 -14.375 21.5625 C-9.08634684 14.6301194 -4.38671749 7.53483239 0 0 Z " fill="#030303" transform="translate(53,178)"/>
<path d="M0 0 C1.64638281 2.09697179 3.1484437 4.16492863 4.625 6.375 C5.03234375 6.96539062 5.4396875 7.55578125 5.859375 8.1640625 C7.62213131 10.7556645 9.00403574 13.01210722 10 16 C-2.08854966 22.27510287 -14.42536998 27.77369283 -27 33 C-28.0825708 33.45318604 -28.0825708 33.45318604 -29.18701172 33.91552734 C-52.75253622 43.74915459 -52.75253622 43.74915459 -58 42 C-57.25556641 40.49373047 -57.25556641 40.49373047 -56.49609375 38.95703125 C-56.01015747 37.97343628 -56.01015747 37.97343628 -55.5144043 36.9699707 C-54.78930515 35.51730664 -54.05488614 34.06926158 -53.31176758 32.62573242 C-51.55331268 29.20184861 -49.88978526 25.84032524 -48.578125 22.21875 C-45.26761893 14.10986996 -45.26761893 14.10986996 -41.08056641 12.06054688 C-36.3050987 10.41579209 -31.38401087 9.5153907 -26.43603516 8.55224609 C-22.693698 7.70386299 -19.22097932 6.35192606 -15.6875 4.875 C-14.53636719 4.39804688 -13.38523438 3.92109375 -12.19921875 3.4296875 C-8.9555488 2.02763858 -8.9555488 2.02763858 -5.76953125 0.2578125 C-3 -1 -3 -1 0 0 Z " fill="#050505" transform="translate(188,90)"/>
<path d="M0 0 C-6.89570317 10.49570028 -13.84505437 20.95320551 -21.125 31.1875 C-21.65633545 31.94659668 -22.1876709 32.70569336 -22.73510742 33.48779297 C-23.2376001 34.18662598 -23.74009277 34.88545898 -24.2578125 35.60546875 C-24.6923877 36.21543701 -25.12696289 36.82540527 -25.57470703 37.45385742 C-27.21318441 39.23126017 -28.79434122 40.0497115 -31 41 C-31.38027344 40.59910156 -31.76054688 40.19820312 -32.15234375 39.78515625 C-39.0494784 33.12949677 -47.51571366 29.25178441 -56 25 C-55.03439073 18.52060427 -53.8497259 12.42397077 -50 7 C-45.90258204 5.01282065 -41.87977338 4.78617977 -37.375 4.5 C-34.94347447 4.25127857 -32.51247754 3.99733636 -30.08203125 3.73828125 C-28.28499756 3.5673999 -28.28499756 3.5673999 -26.45166016 3.39306641 C-20.77854952 2.74702679 -15.28231447 1.46117523 -9.73779297 0.12890625 C-6.08954701 -0.71011541 -3.5774154 -1.08783736 0 0 Z " fill="#030303" transform="translate(114,147)"/>
<path d="M0 0 C4.15714133 1.50825989 6.07750411 4.45874089 8.4375 8 C8.82929443 8.5772583 9.22108887 9.1545166 9.62475586 9.74926758 C18 22.31473318 18 22.31473318 18 27 C16.90042969 27.54527344 15.80085938 28.09054688 14.66796875 28.65234375 C6.30719895 32.8909803 -0.84537069 36.95760666 -7.60546875 43.54296875 C-10 45 -10 45 -12.90234375 44.46484375 C-16.17403835 42.91769939 -19.2714572 41.23712568 -22.375 39.375 C-23.43460938 38.74335938 -24.49421875 38.11171875 -25.5859375 37.4609375 C-26.78089844 36.73777344 -26.78089844 36.73777344 -28 36 C-26.47584736 32.43821015 -24.35813741 30.09678156 -21.6875 27.3125 C-14.89164449 19.98169376 -8.97877495 11.99964971 -3 4 C-2.00016332 2.66654419 -1.00020625 1.33317862 0 0 Z " fill="#040404" transform="translate(84,200)"/>
<path d="M0 0 C-0.85047873 12.47368798 -8.22931635 23.84397453 -15 34 C-26.05967009 32.40271675 -34.92083812 24.25928605 -41.71484375 15.88671875 C-43 14 -43 14 -43 12 C-29.11947882 5.16533121 -15.7469832 -0.4037688 0 0 Z " fill="#040404" transform="translate(107,56)"/>
<path d="M0 0 C9.1313193 3.57678406 15.1553361 15.42862475 19.0390625 23.796875 C19.35617188 24.52390625 19.67328125 25.2509375 20 26 C17.91574509 28.30599268 16.23416092 29.51349593 13.3046875 30.53515625 C12.59320557 30.7863623 11.88172363 31.03756836 11.14868164 31.29638672 C10.3983667 31.5492041 9.64805176 31.80202148 8.875 32.0625 C8.10599365 32.32562988 7.3369873 32.58875977 6.54467773 32.85986328 C-2.20155719 35.80582703 -9.72405064 37.3485743 -19 37 C-17.13724961 23.96074725 -9.32257686 9.32257686 0 0 Z " fill="#040404" transform="translate(37,91)"/>
<path d="M0 0 C1.3303125 1.1446875 1.3303125 1.1446875 2.6875 2.3125 C3.32945312 2.86035156 3.97140625 3.40820312 4.6328125 3.97265625 C6.38429655 5.47268962 8.12790843 6.98192573 9.8671875 8.49609375 C17.58353735 15.16884876 25.60972979 21.20102764 34 27 C30.16092286 31.87970611 26.44764705 35.92950803 21 39 C16.87748575 37.8101402 13.16363023 35.55088946 9.375 33.5625 C3.4239968 30.50164536 -2.43251474 28.40731827 -9 27 C-8.48192665 21.24362945 -7.32285562 16.55126571 -5.0625 11.25 C-4.66514648 10.28126953 -4.66514648 10.28126953 -4.25976562 9.29296875 C-2.9528563 6.13433431 -1.58379681 3.02987217 0 0 Z " fill="#050505" transform="translate(147,197)"/>
<path d="M0 0 C3.70513685 1.50365419 5.59311484 3.63709224 8.125 6.6875 C14.29139217 13.70582793 21.22915878 18.75860216 30 22 C26.5789983 30.26274727 16.63987267 36.80136308 9 41 C8.34 41 7.68 41 7 41 C6.62230469 40.21238281 6.24460937 39.42476562 5.85546875 38.61328125 C2.20459284 31.38847998 -1.85666524 25.3488833 -7.2668457 19.31567383 C-9.62906618 16.67800748 -11.63534022 14.28938225 -13 11 C-11.39801112 9.53927468 -9.79332884 8.08150284 -8.1875 6.625 C-7.29417969 5.81289062 -6.40085937 5.00078125 -5.48046875 4.1640625 C-3 2 -3 2 0 0 Z " fill="#040404" transform="translate(56,73)"/>
<path d="M0 0 C0.02895225 3.29164829 0.0467823 6.58326399 0.0625 9.875 C0.07087891 10.81214844 0.07925781 11.74929687 0.08789062 12.71484375 C0.09111328 13.61074219 0.09433594 14.50664062 0.09765625 15.4296875 C0.10289307 16.25710449 0.10812988 17.08452148 0.11352539 17.93701172 C0 20 0 20 -1 22 C-3.93492895 22.46197956 -6.79567043 22.80227845 -9.75 23.0625 C-11.04466187 23.1860083 -11.04466187 23.1860083 -12.36547852 23.31201172 C-14.90953381 23.55119033 -17.45449702 23.77683685 -20 24 C-21.84658203 24.17208984 -21.84658203 24.17208984 -23.73046875 24.34765625 C-30.83258431 24.96184651 -37.87343268 25.11556596 -45 25 C-45.05482724 23.45874525 -45.09316134 21.91690094 -45.125 20.375 C-45.14820313 19.51648438 -45.17140625 18.65796875 -45.1953125 17.7734375 C-44.97139663 14.59383221 -44.10867368 11.97683247 -43 9 C-41.99582031 8.89042969 -40.99164063 8.78085938 -39.95703125 8.66796875 C-27.94811666 7.30066826 -16.53852743 5.24449084 -5.2421875 0.76953125 C-3 0 -3 0 0 0 Z " fill="#060606" transform="translate(59,126)"/>
<path d="M0 0 C3.92330931 0.55845304 7.57033548 1.7876967 11.3125 3.0625 C12.38113281 3.42472656 13.44976562 3.78695312 14.55078125 4.16015625 C15.76314453 4.57587891 15.76314453 4.57587891 17 5 C15.74327167 11.19643261 14.09958048 17.14203818 12.0625 23.125 C11.81048828 23.88425781 11.55847656 24.64351562 11.29882812 25.42578125 C9.74018052 30.05787464 7.98437971 34.53366477 6 39 C1.05 39 -3.9 39 -9 39 C-3.93506494 3.93506494 -3.93506494 3.93506494 0 0 Z " fill="#060606" transform="translate(134,58)"/>
<path d="M0 0 C3.63 0 7.26 0 11 0 C11.95107148 3.80428593 12.06934535 4.69377706 11.109375 8.203125 C10.89563232 9.01168945 10.68188965 9.82025391 10.46166992 10.65332031 C10.22681885 11.51022461 9.99196777 12.36712891 9.75 13.25 C7.41770618 22.11190528 5.5509774 30.97154619 4 40 C1.95775363 39.88485851 -0.08380159 39.75742674 -2.125 39.625 C-3.26195313 39.55539063 -4.39890625 39.48578125 -5.5703125 39.4140625 C-8.95393616 39.00556124 -11.81612441 38.19032431 -15 37 C-13.60843954 33.20919738 -11.82613164 29.98146543 -9.6875 26.5625 C-4.80350069 18.31374126 -1.35124588 9.51622096 0 0 Z " fill="#060606" transform="translate(114,56)"/>
<path d="M0 0 C0.77794922 -0.00386719 1.55589844 -0.00773438 2.35742188 -0.01171875 C7.42349739 -0.00326825 12.31787059 0.23930814 17.3125 1.125 C17.6425 1.785 17.9725 2.445 18.3125 3.125 C17.09610375 5.34385346 15.83729741 7.40016371 14.4375 9.5 C14.03200928 10.11762207 13.62651855 10.73524414 13.20874023 11.37158203 C5.07594447 23.62639391 5.07594447 23.62639391 0.3125 29.125 C-0.3475 29.125 -1.0075 29.125 -1.6875 29.125 C-2.99227127 26.15140904 -4.27879045 23.17023689 -5.5625 20.1875 C-6.10970703 18.94129883 -6.10970703 18.94129883 -6.66796875 17.66992188 C-9.01077052 12.19628501 -10.56598047 6.97460978 -11.6875 1.125 C-7.78211576 -0.17679475 -4.06832789 -0.0197332 0 0 Z " fill="#060606" transform="translate(27.6875,173.875)"/>
<path d="M0 0 C4.46696939 1.28564758 7.72299376 2.96816369 11.4375 5.75 C12.38109375 6.45640625 13.3246875 7.1628125 14.296875 7.890625 C17.63229645 10.49341052 20.83812449 13.18944399 24 16 C21.32719813 19.31387981 17.79791299 20.52313035 13.9375 22 C13.26936279 22.26055176 12.60122559 22.52110352 11.9128418 22.78955078 C-1.63465203 28 -1.63465203 28 -8 28 C-6.69569529 21.122757 -4.57509683 14.78809243 -2.12109375 8.234375 C-1.16427484 5.47393576 -0.48091429 2.87467869 0 0 Z " fill="#060606" transform="translate(157,67)"/>
<path d="M0 0 C-0.51525603 5.28137429 -2.25477117 8.57221156 -5 13 C-5.56960449 12.9285376 -6.13920898 12.8570752 -6.72607422 12.78344727 C-13.87618676 11.96883245 -20.9346109 11.88315404 -28.125 11.9375 C-29.84589844 11.94426758 -29.84589844 11.94426758 -31.6015625 11.95117188 C-34.40109813 11.96283661 -37.20051986 11.97920386 -40 12 C-40.33 8.7 -40.66 5.4 -41 2 C-36.92928803 1.71025316 -32.85824845 1.42566853 -28.78686523 1.14550781 C-27.4068876 1.04986103 -26.02700066 0.95289487 -24.6472168 0.85449219 C-16.42356948 0.26900912 -8.24804263 -0.15634042 0 0 Z " fill="#070707" transform="translate(55,156)"/>
<path d="M0 0 C0.83661862 2.7907207 1.66942737 5.58248012 2.5 8.375 C2.85771484 9.56609375 2.85771484 9.56609375 3.22265625 10.78125 C3.44824219 11.54179687 3.67382812 12.30234375 3.90625 13.0859375 C4.22045898 14.1385376 4.22045898 14.1385376 4.54101562 15.21240234 C5 17 5 17 5 19 C-4.73991324 19.6283815 -13.60720547 17.29192372 -23 15 C-23 14.01 -23 13.02 -23 12 C-16.83916357 6.48469238 -8.50464388 0 0 0 Z " fill="#0C0C0C" transform="translate(106,234)"/>
<path d="M0 0 C0 7.26 0 14.52 0 22 C-3.63 22.33 -7.26 22.66 -11 23 C-11.8397028 20.08503169 -12.67196003 17.1682814 -13.5 14.25 C-13.73847656 13.425 -13.97695312 12.6 -14.22265625 11.75 C-14.44824219 10.95078125 -14.67382812 10.1515625 -14.90625 9.328125 C-15.11572266 8.5949707 -15.32519531 7.86181641 -15.54101562 7.10644531 C-16 5 -16 5 -16 1 C-10.4156021 -0.17566272 -6.01330943 0 0 0 Z " fill="#080808" transform="translate(129,230)"/>
<path d="M0 0 C8.6819064 0.59194816 16.69781159 4.42610176 24 9 C20.55306568 11.92945563 16.73128181 13.5031279 12.5625 15.125 C11.90701172 15.38925781 11.25152344 15.65351563 10.57617188 15.92578125 C7.09306418 17.3022551 3.72904337 18.53996848 0 19 C-1.81187842 17.18812158 -1.13234462 14.7302249 -1.13671875 12.32226562 C-1.13285156 11.57654297 -1.12898437 10.83082031 -1.125 10.0625 C-1.12886719 9.32064453 -1.13273438 8.57878906 -1.13671875 7.81445312 C-1.12663501 2.25327002 -1.12663501 2.25327002 0 0 Z " fill="#080808" transform="translate(136,231)"/>
<path d="M0 0 C3.96 0 7.92 0 12 0 C9.56705598 8.66736307 5.34217123 16.17171506 1 24 C0.67 24 0.34 24 0 24 C0 16.08 0 8.16 0 0 Z " fill="#050505" transform="translate(124,104)"/>
</svg>
